# Blender 3.3.1
# www.blender.org
mtllib Random Wall.mtl
o Cube.003
v -2.074600 0.155309 0.159115
v -2.087900 0.965793 0.159115
v -2.074600 0.155309 -0.159115
v -2.087900 0.965793 -0.159115
v 2.087900 0.223613 0.159115
v 2.074600 1.034097 0.159115
v 2.087900 0.223613 -0.159115
v 2.074600 1.034097 -0.159115
v -2.105668 -0.919940 0.159115
v -2.046158 -0.111534 0.159115
v -2.105668 -0.919940 -0.159115
v -2.046158 -0.111534 -0.159115
v 2.046158 -1.225575 0.159115
v 2.105668 -0.417169 0.159115
v 2.046158 -1.225575 -0.159115
v 2.105668 -0.417169 -0.159115
vn -0.9999 -0.0164 -0.0000
vn -0.0000 -0.0000 -1.0000
vn 0.9999 0.0164 -0.0000
vn -0.0000 -0.0000 1.0000
vn 0.0164 -0.9999 -0.0000
vn -0.0164 0.9999 -0.0000
vn -0.9973 0.0734 -0.0000
vn 0.9973 -0.0734 -0.0000
vn -0.0734 -0.9973 -0.0000
vn 0.0734 0.9973 -0.0000
vt 0.375000 0.000000
vt 0.375000 1.000000
vt 0.125000 0.750000
vt 0.625000 0.000000
vt 0.625000 1.000000
vt 0.875000 0.750000
vt 0.375000 0.250000
vt 0.125000 0.500000
vt 0.625000 0.250000
vt 0.875000 0.500000
vt 0.375000 0.750000
vt 0.625000 0.750000
vt 0.375000 0.500000
vt 0.625000 0.500000
vt 0.375000 0.000000
vt 0.375000 1.000000
vt 0.125000 0.750000
vt 0.625000 0.000000
vt 0.625000 1.000000
vt 0.875000 0.750000
vt 0.375000 0.250000
vt 0.125000 0.500000
vt 0.625000 0.250000
vt 0.875000 0.500000
vt 0.375000 0.750000
vt 0.625000 0.750000
vt 0.375000 0.500000
vt 0.625000 0.500000
s 0
f 1/1/1 2/4/1 4/9/1 3/7/1
f 3/7/2 4/9/2 8/14/2 7/13/2
f 7/13/3 8/14/3 6/12/3 5/11/3
f 5/11/4 6/12/4 2/5/4 1/2/4
f 3/8/5 7/13/5 5/11/5 1/3/5
f 8/14/6 4/10/6 2/6/6 6/12/6
f 9/15/7 10/18/7 12/23/7 11/21/7
f 11/21/2 12/23/2 16/28/2 15/27/2
f 15/27/8 16/28/8 14/26/8 13/25/8
f 13/25/4 14/26/4 10/19/4 9/16/4
f 11/22/9 15/27/9 13/25/9 9/17/9
f 16/28/10 12/24/10 10/20/10 14/26/10
o Cube.004
v 1.775197 -2.899803 -0.125012
v 1.775197 1.445917 -0.125012
v 1.863593 -2.899803 -0.088397
v 1.863593 1.445917 -0.088397
v 1.900208 -2.899803 0.000000
v 1.900208 1.445917 0.000000
v 1.863593 -2.899803 0.088397
v 1.863593 1.445917 0.088397
v 1.775197 -2.899803 0.125012
v 1.775197 1.445917 0.125012
v 1.686800 -2.899803 0.088397
v 1.686800 1.445917 0.088397
v 1.650185 -2.899803 0.000000
v 1.650185 1.445917 0.000000
v 1.686800 -2.899803 -0.088397
v 1.686800 1.445917 -0.088397
v -1.775197 -2.899803 -0.125012
v -1.775197 1.445917 -0.125012
v -1.863593 -2.899803 -0.088397
v -1.863593 1.445917 -0.088397
v -1.900208 -2.899803 0.000000
v -1.900208 1.445917 0.000000
v -1.863593 -2.899803 0.088397
v -1.863593 1.445917 0.088397
v -1.775197 -2.899803 0.125012
v -1.775197 1.445917 0.125012
v -1.686800 -2.899803 0.088397
v -1.686800 1.445917 0.088397
v -1.650185 -2.899803 0.000000
v -1.650185 1.445917 0.000000
v -1.686800 -2.899803 -0.088397
v -1.686800 1.445917 -0.088397
vn 0.3827 -0.0000 -0.9239
vn 0.9239 -0.0000 -0.3827
vn 0.9239 -0.0000 0.3827
vn 0.3827 -0.0000 0.9239
vn -0.3827 -0.0000 0.9239
vn -0.9239 -0.0000 0.3827
vn -0.0000 1.0000 -0.0000
vn -0.9239 -0.0000 -0.3827
vn -0.3827 -0.0000 -0.9239
vn -0.0000 -1.0000 -0.0000
vt 1.000000 0.500000
vt 0.000000 0.500000
vt 0.750000 0.490000
vt 1.000000 1.000000
vt 0.250000 0.490000
vt 0.000000 1.000000
vt 0.875000 0.500000
vt 0.919706 0.419706
vt 0.875000 1.000000
vt 0.419706 0.419706
vt 0.750000 0.500000
vt 0.990000 0.250000
vt 0.750000 1.000000
vt 0.490000 0.250000
vt 0.625000 0.500000
vt 0.919706 0.080294
vt 0.625000 1.000000
vt 0.419706 0.080294
vt 0.500000 0.500000
vt 0.750000 0.010000
vt 0.500000 1.000000
vt 0.250000 0.010000
vt 0.375000 0.500000
vt 0.580294 0.080294
vt 0.375000 1.000000
vt 0.080294 0.080294
vt 0.250000 0.500000
vt 0.510000 0.250000
vt 0.010000 0.250000
vt 0.250000 1.000000
vt 0.125000 0.500000
vt 0.580294 0.419706
vt 0.080294 0.419706
vt 0.125000 1.000000
vt 1.000000 0.500000
vt 0.000000 0.500000
vt 0.750000 0.490000
vt 1.000000 1.000000
vt 0.250000 0.490000
vt 0.000000 1.000000
vt 0.875000 0.500000
vt 0.919706 0.419706
vt 0.875000 1.000000
vt 0.419706 0.419706
vt 0.750000 0.500000
vt 0.990000 0.250000
vt 0.750000 1.000000
vt 0.490000 0.250000
vt 0.625000 0.500000
vt 0.919706 0.080294
vt 0.625000 1.000000
vt 0.419706 0.080294
vt 0.500000 0.500000
vt 0.750000 0.010000
vt 0.500000 1.000000
vt 0.250000 0.010000
vt 0.375000 0.500000
vt 0.580294 0.080294
vt 0.375000 1.000000
vt 0.080294 0.080294
vt 0.250000 0.500000
vt 0.510000 0.250000
vt 0.010000 0.250000
vt 0.250000 1.000000
vt 0.125000 0.500000
vt 0.580294 0.419706
vt 0.080294 0.419706
vt 0.125000 1.000000
s 0
f 17/29/11 18/32/11 20/37/11 19/35/11
f 19/35/12 20/37/12 22/41/12 21/39/12
f 21/39/13 22/41/13 24/45/13 23/43/13
f 23/43/14 24/45/14 26/49/14 25/47/14
f 25/47/15 26/49/15 28/53/15 27/51/15
f 27/51/16 28/53/16 30/58/16 29/55/16
f 20/38/17 18/33/17 32/61/17 30/57/17 28/54/17 26/50/17 24/46/17 22/42/17
f 29/55/18 30/58/18 32/62/18 31/59/18
f 31/59/19 32/62/19 18/34/19 17/30/19
f 17/31/20 19/36/20 21/40/20 23/44/20 25/48/20 27/52/20 29/56/20 31/60/20
f 33/63/19 35/69/19 36/71/19 34/66/19
f 35/69/18 37/73/18 38/75/18 36/71/18
f 37/73/16 39/77/16 40/79/16 38/75/16
f 39/77/15 41/81/15 42/83/15 40/79/15
f 41/81/14 43/85/14 44/87/14 42/83/14
f 43/85/13 45/89/13 46/92/13 44/87/13
f 36/72/17 38/76/17 40/80/17 42/84/17 44/88/17 46/91/17 48/95/17 34/67/17
f 45/89/12 47/93/12 48/96/12 46/92/12
f 47/93/11 33/64/11 34/68/11 48/96/11
f 33/65/20 47/94/20 45/90/20 43/86/20 41/82/20 39/78/20 37/74/20 35/70/20
